<svg xmlns="http://www.w3.org/2000/svg" width="427.63" height="283.51" viewBox="0 0 427.63 283.51"><g id="Groupe_487" data-name="Groupe 487" transform="translate(-2853.83 -1511)"><path id="Tracé_1871" data-name="Tracé 1871" d="M1350.12,80.42a3.071,3.071,0,0,1,2.08-1,2,2,0,0,1,1.85,2.17,3.249,3.249,0,0,1-1,2.19c-27.42,34.1-47.37,74-47.37,129.27s19.95,94.35,47.37,128.44a3.35,3.35,0,0,1,1,2.19,2,2,0,0,1-1.85,2.18,3,3,0,0,1-2.08-1.05l-116.89-113c-5.83-5-9.56-10.82-9.56-19.12s3.73-14.16,9.56-19.11L1350.12,80.42" transform="translate(1630.16 1440.18)" fill="#ed1c24"></path><path id="Tracé_1872" data-name="Tracé 1872" d="M1440,70.87c-45.76,0-63.63,64.86-63.63,142.15s17.87,141.31,63.63,141.31c27.47,0,50.87-16.09,51-29.31a11.2,11.2,0,0,0-3.53-8.07c-13-12.57-18.09-25.14-18.16-36.23-.07-21.18,18.3-37,35.22-37,23.29,0,37,18.3,37,42,0,22.45-9.58,41.17-20,56.14a3.33,3.33,0,0,0-.59,1.89,1.92,1.92,0,0,0,1.73,2.13,3.21,3.21,0,0,0,2.17-1.14l116.91-113c5.82-5,9.55-10.82,9.55-19.12s-3.73-14.16-9.55-19.11L1524.8,80.43a3.29,3.29,0,0,0-2.17-1.14,1.93,1.93,0,0,0-1.73,2.16,3.461,3.461,0,0,0,.59,1.91c10.39,15,20,33.67,20,56.09,0,23.68-13.73,42-37,42-16.92,0-35.29-15.78-35.22-37,.07-11.07,5.15-23.66,18.16-36.22a11.219,11.219,0,0,0,3.53-8.08c-.09-13.23-23.49-29.33-51-29.33" transform="translate(1630.16 1440.18)" fill="#005baa"></path></g></svg>