<svg id="Calque_1" data-name="Calque 1" xmlns="http://www.w3.org/2000/svg" viewBox="0 0 1562.46 354.13"><title>logo-carrefour-cameroun</title><path d="M1261.28,9.6a3.07,3.07,0,0,1,2.08-1,2,2,0,0,1,1.85,2.14v0a3.27,3.27,0,0,1-1,2.19c-27.42,34.1-47.37,74-47.37,129.27s20,94.35,47.37,128.44a3.36,3.36,0,0,1,1,2.19,2,2,0,0,1-1.81,2.17h0a3,3,0,0,1-2.08-1.05L1144.39,161c-5.83-5-9.56-10.82-9.56-19.12s3.73-14.16,9.56-19.11L1261.28,9.6" transform="translate(0 0)" style="fill:#ed1c24"/><path d="M1351.16.05c-45.76,0-63.63,64.86-63.63,142.15s17.87,141.31,63.63,141.31c27.47,0,50.87-16.09,51-29.31a11.21,11.21,0,0,0-3.53-8.07c-13-12.57-18.09-25.14-18.16-36.23-.07-21.18,18.3-37,35.22-37,23.29,0,37,18.3,37,42,0,22.45-9.58,41.17-20,56.14a3.33,3.33,0,0,0-.59,1.89,1.92,1.92,0,0,0,1.69,2.12h0a3.21,3.21,0,0,0,2.17-1.14l116.91-113c5.82-5,9.55-10.82,9.55-19.12s-3.73-14.16-9.55-19.11L1436,9.61a3.25,3.25,0,0,0-2.17-1.14,1.93,1.93,0,0,0-1.74,2.1v.06a3.44,3.44,0,0,0,.59,1.91c10.39,15,20,33.67,20,56.09,0,23.68-13.73,42-37,42-16.92,0-35.29-15.78-35.22-37,.07-11.07,5.15-23.66,18.16-36.22a11.21,11.21,0,0,0,3.53-8.08C1402,16.1,1378.63,0,1351.12,0" transform="translate(0 0)" style="fill:#005baa"/><path d="M156,190a33.3,33.3,0,0,1,13.94-27.78c8.74-6.44,21-9.86,35.12-9.86,8.86,0,18,1.63,24.28,4.35V143.51c-.21-13.33-5.26-20.91-20.22-21.08a51.94,51.94,0,0,0-14.2,2.48,24,24,0,0,1,.79,5.79,17.28,17.28,0,0,1-4.11,11.58,15,15,0,0,1-11.42,4.9c-8.63,0-15.15-7-15.18-15.81.19-16.2,19.84-27.09,46.09-27.1,20.84,0,33.91,4.94,40.9,13.92,6.34,8.06,6.64,19.83,6.67,36.44v43.25c.12,8.38,4.86,10.67,15.29,12.28l1.2.15-.08,1.22c-.6,11.41-9,16.15-18,16.87-.79.07-1.56.1-2.34.1-8.87,0-17.43-4.34-21.51-13.21C227.62,220,215,228.78,198.73,228.8c-24.23,0-42.62-16.38-42.66-38.76m743.24,33.14c-2.16-3-3.34-6.85-4.36-11.26-1.21,1.36-2.62,2.82-4.76,4.87a43.28,43.28,0,0,1-29.91,11.89c-12.71,0-23.54-4.87-30.44-13C819.24,203,819.33,187,819.31,164.23v-22c-.22-8.88-3-11.91-11.26-12.14a29.06,29.06,0,0,0-3.49.21l-1,.11-.37-.92a12.85,12.85,0,0,1-1-4.73c.26-10.61,13.7-16.29,21.59-17.92a52.19,52.19,0,0,1,7.88-.87c6.43,0,11.19,2.06,14.16,5.77S850,120.56,850,126.5L849.8,164c0,13.84,1,24.19,4,30.85s7.78,9.72,16.41,9.8c9.39,0,15-4.07,18.68-10.09s4.94-14.17,4.94-22v-30.3c-.23-8.88-3-11.93-11.27-12.14a29,29,0,0,0-3.48.21l-1,.11-.37-.92a12.85,12.85,0,0,1-1-4.73c.27-10.61,13.68-16.29,21.62-17.92a52.19,52.19,0,0,1,7.88-.87c6.43,0,11.19,2.06,14.19,5.77s4.2,8.82,4.2,14.75c0,4.3-.4,11.94-.4,43.85,0,13.49-.23,20.66-.23,22.83.2,9.2,3.31,13.33,11.81,13.5.9,0,1.84-.07,2.89-.17l1-.1.37.92a12.2,12.2,0,0,1,1,4.61c-.33,10.37-13.8,14.51-21.6,16.07a52.25,52.25,0,0,1-7.38.83h-.17c-6,0-10.1-2.12-12.65-5.69M473.57,168.46c0-18.62,6.13-34.69,16.85-46.1s26-18.14,44.16-18.12c16.52,0,28.76,6.11,36.78,14.89a45.79,45.79,0,0,1,11.85,30.58,34.37,34.37,0,0,1-4,16.8l-.36.67H505c1.22,21.48,14.9,36.49,38.71,36.57,14.64,0,25.92-8,29.67-12.84l.79-1,1,.76c2.13,1.52,4.43,4.32,4.38,9.67-.08,12.38-14.58,28.24-46.74,28.26-32.67,0-59.24-26.08-59.29-60.13M735.16,228.4c-16.64,0-31.81-6.25-42.8-17.18s-17.8-26.54-17.8-45.11c.06-36.79,29-61.81,61.65-61.87,17.57,0,32.82,6.25,43.62,17.15S797,147.79,797,166.11s-6.63,34-17.7,45S752.73,228.4,735.16,228.4Zm226.16-3.7c-5.13-1.4-8.43-4.2-8.41-8.44a13,13,0,0,1,1.38-5.37l.27-.59.65-.13a19.29,19.29,0,0,0,8-3.63c3.07-2.51,4.25-6,4.25-15.85V141.18c-.23-8.35-2.13-11.27-9.08-11.47a30.18,30.18,0,0,0-5.52.6l-1.06.19-.4-1a14.68,14.68,0,0,1-1.08-5.31c.18-9.92,11-15,18.31-17.3a28.06,28.06,0,0,1,8.23-1.33c9.89,0,15.28,7.09,17.56,16.24,6.48-10.64,16.82-17.69,27-17.74,9.57,0,19.18,6.26,19.22,18.15,0,8.44-6,17.28-15.9,17.33a15.31,15.31,0,0,1-15.3-12c-5.62,1.84-13.54,8.89-13.64,33.33v29.89c0,9.81,1.41,13.34,4.17,15.83,2.89,2.17,8.75,3.26,10.8,3.65l.65.13.28.6a14,14,0,0,1,1.52,5.81c0,4-3,6.75-7.78,8.07s-12,2-21.63,2c-9.88,0-17.38-.58-22.56-2.07m-357.47,0c-5.15-1.41-8.48-4.22-8.47-8.47a13,13,0,0,1,1.37-5.33l.27-.59.66-.13a19.93,19.93,0,0,0,8.16-3.6c3-2.54,4.18-6,4.23-15.88V125.55l-17.51-.61-.3-.78a15.83,15.83,0,0,1-1.34-6.13c0-6.34,4.92-10.59,11.06-10.59h7.64v-7.21c0-17.42,3.25-27.34,7.69-34,6.8-10.6,18.65-17.88,36.69-17.85,22.69,0,41.69,10.56,41.81,27.51,0,7.34-5.13,16.45-15.79,16.46a15.55,15.55,0,0,1-15.38-15.16,16.33,16.33,0,0,1,2.59-8.61c-2.38-2.09-6.92-3.35-11.3-3.31-7,0-10.9,2.46-13.35,6.5s-3.26,10-3.26,16.7v18.71h30.11l.35.81a16.13,16.13,0,0,1,1.31,6.28,11.64,11.64,0,0,1-10.49,11.94c-2.24.19-4.48.26-6.73.23-5,0-9.95-.36-13.63-.43v64.64c0,9.78,1.63,13.28,4.6,15.83,2.63,2.11,10.08,3.26,12.26,3.65l.65.11.28.62a11.71,11.71,0,0,1,1.24,4.93c0,4.47-3.64,7.29-9.14,8.78s-13.49,2.16-23.58,2.16c-9.9,0-17.41-.58-22.64-2.08m-209.71,0c-5.11-1.4-8.39-4.22-8.39-8.44a13.48,13.48,0,0,1,1.39-5.36l.28-.6.66-.13a19.81,19.81,0,0,0,8.13-3.6c3-2.54,4.21-6,4.23-15.88V141.18c-.24-8.35-2.2-11.27-9.12-11.47a30.19,30.19,0,0,0-5.53.6l-1.06.19-.39-1a14.39,14.39,0,0,1-1.12-5.41c.18-9.86,11-14.93,18.36-17.2a27.66,27.66,0,0,1,8.07-1.33c10,0,15.37,7,17.69,16,6.53-10.53,16.92-17.48,27.08-17.52,9.44,0,19.17,6.24,19.21,18.14,0,8.44-6,17.3-16,17.33a15.15,15.15,0,0,1-15.16-12c-5.67,1.85-13.73,8.91-13.81,33.33v29.89c0,9.81,1.46,13.32,4.4,15.83,2.76,2.17,8.62,3.26,10.76,3.65l.64.13.29.6a14,14,0,0,1,1.48,5.76c0,4-3,6.77-7.82,8.12s-12,2-21.71,2c-9.88,0-17.35-.58-22.54-2.07m-99.1,0c-5.11-1.4-8.38-4.22-8.38-8.44a13,13,0,0,1,1.38-5.36l.28-.6.65-.13a19.93,19.93,0,0,0,8.16-3.6c3-2.54,4.2-6,4.22-15.88V141.18c-.25-8.35-2.2-11.27-9.13-11.47a30.18,30.18,0,0,0-5.52.6l-1.06.19-.39-1a14.39,14.39,0,0,1-1.12-5.41c.18-9.86,11-14.93,18.36-17.2a27.53,27.53,0,0,1,8.05-1.33c10,0,15.38,7,17.71,16,6.52-10.49,16.91-17.44,27.07-17.49,9.46,0,19.19,6.25,19.23,18.15,0,8.44-6,17.3-16,17.33a15.17,15.17,0,0,1-15.17-12c-5.67,1.85-13.71,8.91-13.8,33.33v29.89c0,9.81,1.44,13.32,4.4,15.83,2.73,2.17,8.62,3.26,10.75,3.65l.65.13.28.6a14.07,14.07,0,0,1,1.5,5.76c0,4-3,6.77-7.84,8.12s-12,2-21.71,2c-9.88,0-17.35-.58-22.54-2.07m413.28-62c.06,32.57,14.21,46.57,28.11,46.61,15.88,0,27.37-14,27.47-41.45,0-14.31-3.16-25.76-8.34-33.52s-12.25-11.9-20.4-11.9c-16.49,0-26.75,14.92-26.84,40.26m-498.2,6.77c-13.07.14-21.88,6.28-21.94,18.43.08,11.48,7.83,19.2,20,19.28,7.89,0,16-4.35,21.08-10.67V179.79c0-2.3-1.5-4.8-4.73-6.82s-8.12-3.41-14.42-3.41m338.71-19.68c2.35,0,3-.58,3.45-1.34a10,10,0,0,0,.57-4.34,22.08,22.08,0,0,0-22.41-21.76h-.16c-17,0-24,13.65-25,27.44ZM23.67,207C9.27,192.27,0,170.72,0,143.87c0-25.69,9.06-47.36,23.23-62.6s33.43-24,53.74-24c36.43.06,62.16,25.55,62.29,47.58,0,11.78-7.47,20.9-17.57,20.92a19,19,0,0,1-13.07-4.92,18.28,18.28,0,0,1-5.54-13.69c0-6.89,3.52-11.07,6.16-14.07C104.45,84.78,95,77.93,80.12,77.9c-12.64,0-23.27,6.56-30.93,18.1S37,124.09,37,143.68s4.72,36,12.58,47.53,18.73,18,31.37,18c14.86,0,24.34-6.8,29.11-15.18-2.65-2.93-6.16-7.14-6.16-14a18.46,18.46,0,0,1,5.54-13.73,19,19,0,0,1,13.08-4.92c10.1,0,17.54,9.08,17.56,20.83-.12,22.15-25.85,47.54-62.27,47.61A75.41,75.41,0,0,1,23.67,207m0,0C9.27,192.25,0,170.7,0,143.85c0-25.69,9.06-47.36,23.23-62.6s33.43-24,53.74-24c36.43.06,62.16,25.55,62.29,47.58,0,11.78-7.47,20.9-17.57,20.92a19,19,0,0,1-13.07-4.92,18.28,18.28,0,0,1-5.54-13.69c0-6.89,3.52-11.07,6.16-14.07C104.45,84.76,95,77.91,80.12,77.88c-12.64,0-23.27,6.56-30.93,18.1S37,124.07,37,143.66s4.72,36,12.58,47.53,18.73,18,31.37,18c14.86,0,24.34-6.8,29.11-15.18-2.65-2.93-6.16-7.14-6.16-14a18.46,18.46,0,0,1,5.54-13.73,19,19,0,0,1,13.08-4.92c10.1,0,17.54,9.08,17.56,20.83-.12,22.15-25.85,47.54-62.27,47.61A75.41,75.41,0,0,1,23.67,207m0,0C9.27,192.23,0,170.68,0,143.83c0-25.69,9.06-47.36,23.23-62.6s33.43-24,53.74-24c36.43.06,62.16,25.55,62.29,47.58,0,11.78-7.47,20.9-17.57,20.92a19,19,0,0,1-13.07-4.92,18.28,18.28,0,0,1-5.54-13.69c0-6.89,3.52-11.07,6.16-14.07C104.45,84.74,95,77.89,80.12,77.86c-12.64,0-23.27,6.56-30.93,18.1S37,124.05,37,143.64s4.72,36,12.58,47.53,18.73,18,31.37,18c14.86,0,24.34-6.8,29.11-15.18-2.65-2.93-6.16-7.14-6.16-14a18.46,18.46,0,0,1,5.54-13.73,19,19,0,0,1,13.08-4.92c10.1,0,17.54,9.08,17.56,20.83-.12,22.15-25.85,47.54-62.27,47.61A75.41,75.41,0,0,1,23.67,207" transform="translate(0 0)" style="fill:#005baa"/><g style="isolation:isolate"><g style="isolation:isolate"><path d="M479.16,348.59a36.88,36.88,0,0,1-14.8-15.88q-5.17-10.32-5.17-24.19t5.17-24.13a37,37,0,0,1,14.8-15.81Q488.8,263,501.65,263a48.66,48.66,0,0,1,15.63,2.46,40.63,40.63,0,0,1,13,7.12,7.18,7.18,0,0,1,2.26,2.65,8.19,8.19,0,0,1,.63,3.4,7.2,7.2,0,0,1-1.51,4.66,4.53,4.53,0,0,1-3.65,1.89,9.38,9.38,0,0,1-5.17-1.76,37.27,37.27,0,0,0-10.08-5.61,32.13,32.13,0,0,0-10.33-1.58q-13.11,0-19.85,8.19t-6.74,24.07q0,16,6.74,24.19t19.85,8.19a29.5,29.5,0,0,0,10-1.64,48.13,48.13,0,0,0,10.39-5.54,18.51,18.51,0,0,1,2.52-1.26A7.17,7.17,0,0,1,528,332a4.53,4.53,0,0,1,3.65,1.89,7.2,7.2,0,0,1,1.51,4.66,8.33,8.33,0,0,1-.63,3.34,7.09,7.09,0,0,1-2.26,2.71,40.41,40.41,0,0,1-13,7.11,48.66,48.66,0,0,1-15.63,2.46Q488.81,354.13,479.16,348.59Z" transform="translate(0 0)" style="fill:#ed1c24"/><path d="M590.55,296.24q6.24,6.36,6.23,19.34v30.74a7.1,7.1,0,0,1-2,5.35,7.63,7.63,0,0,1-5.55,2,7.35,7.35,0,0,1-5.35-2,7,7,0,0,1-2.08-5.29v-2.77a16.46,16.46,0,0,1-6.74,7.68A20.23,20.23,0,0,1,564.4,354a24.72,24.72,0,0,1-11.21-2.52,19.94,19.94,0,0,1-7.94-6.93,17.54,17.54,0,0,1-2.9-9.83q0-6.81,3.47-10.71t11.27-5.67q7.81-1.77,21.55-1.77h3.15v-2.89q0-6.18-2.65-9c-1.76-1.89-4.62-2.84-8.56-2.84a27.36,27.36,0,0,0-7.44,1.07Q559.36,304,554.2,306a12.68,12.68,0,0,1-4.79,1.64,4.76,4.76,0,0,1-3.72-1.64,6.2,6.2,0,0,1-1.45-4.28,6.48,6.48,0,0,1,1.07-3.72,10.17,10.17,0,0,1,3.59-3,40.76,40.76,0,0,1,10.53-3.78,54.47,54.47,0,0,1,12-1.39Q584.31,289.87,590.55,296.24Zm-12.73,42.21a15.27,15.27,0,0,0,4-10.9V324.9h-2.27a85.88,85.88,0,0,0-13.1.76q-4.67.75-6.68,2.64a6.77,6.77,0,0,0-2,5.17,8.54,8.54,0,0,0,2.84,6.61,10,10,0,0,0,7,2.59A13.46,13.46,0,0,0,577.82,338.45Z" transform="translate(0 0)" style="fill:#ed1c24"/><path d="M701.43,295.86q5.36,6,5.35,19.34v31a7.12,7.12,0,0,1-2.2,5.61,8.36,8.36,0,0,1-5.74,1.95,8.15,8.15,0,0,1-5.6-1.95,7.1,7.1,0,0,1-2.21-5.61v-31q0-6.93-2.46-9.89c-1.63-2-4.13-3-7.49-3a12.31,12.31,0,0,0-9.83,4.22q-3.66,4.21-3.65,11.53v28.09a7.1,7.1,0,0,1-2.21,5.61,8.16,8.16,0,0,1-5.61,1.95,8.4,8.4,0,0,1-5.67-1.95,7,7,0,0,1-2.26-5.61v-31q0-6.93-2.46-9.89c-1.64-2-4.14-3-7.5-3a12.11,12.11,0,0,0-9.76,4.22q-3.6,4.21-3.59,11.53v28.09a7,7,0,0,1-2.27,5.61,8.38,8.38,0,0,1-5.67,1.95A8.16,8.16,0,0,1,615,351.8a7.09,7.09,0,0,1-2.2-5.61V297.43a6.66,6.66,0,0,1,2.26-5.42,8.59,8.59,0,0,1,5.67-1.89,7.82,7.82,0,0,1,5.36,1.83,6.61,6.61,0,0,1,2.08,5.23v3a19.72,19.72,0,0,1,7.75-7.68,22.83,22.83,0,0,1,11.15-2.65q13.86,0,18.52,11.59a20.89,20.89,0,0,1,8.19-8.44A23.87,23.87,0,0,1,686,289.87Q696.07,289.87,701.43,295.86Z" transform="translate(0 0)" style="fill:#ed1c24"/><path d="M775,337.75a6.84,6.84,0,0,1,1.32,4.41q0,3.91-4.66,6.55a42.22,42.22,0,0,1-9.7,3.85A40.33,40.33,0,0,1,751.64,354q-14.88,0-23.57-8.57T719.38,322a36,36,0,0,1,3.78-16.76,27.5,27.5,0,0,1,10.65-11.34,30.19,30.19,0,0,1,15.56-4,27.91,27.91,0,0,1,14.49,3.66,24.72,24.72,0,0,1,9.57,10.33,34.25,34.25,0,0,1,3.41,15.75q0,5.42-4.79,5.42H734.88q.75,8.69,4.91,12.79t12.1,4.09a22.75,22.75,0,0,0,7.12-1,69.12,69.12,0,0,0,7-2.77c2.52-1.34,4.37-2,5.54-2A4.25,4.25,0,0,1,775,337.75ZM739.48,305q-3.86,4-4.6,11.59h28.47q-.26-7.68-3.78-11.65t-9.82-4A13.5,13.5,0,0,0,739.48,305Z" transform="translate(0 0)" style="fill:#ed1c24"/><path d="M829.25,291.51a6.15,6.15,0,0,1,1.89,4.91,6.87,6.87,0,0,1-1.64,5c-1.09,1.1-3.07,1.81-5.92,2.15l-3.78.37q-7.44.76-10.9,5a16.49,16.49,0,0,0-3.46,10.71v26.46a7,7,0,0,1-2.27,5.61,8.38,8.38,0,0,1-5.67,1.95,8.16,8.16,0,0,1-5.61-1.95,7.09,7.09,0,0,1-2.2-5.61V297.43a6.75,6.75,0,0,1,2.2-5.42,8.13,8.13,0,0,1,5.48-1.89,7.55,7.55,0,0,1,5.29,1.83,6.68,6.68,0,0,1,2,5.23v5a18.62,18.62,0,0,1,7.12-8.57,21.88,21.88,0,0,1,10.52-3.4l1.76-.13A6.83,6.83,0,0,1,829.25,291.51Z" transform="translate(0 0)" style="fill:#ed1c24"/><path d="M848.21,350.1a27,27,0,0,1-11-11.21,38.82,38.82,0,0,1,0-34,27.09,27.09,0,0,1,11-11.15,37.07,37.07,0,0,1,33.14,0,26.66,26.66,0,0,1,11,11.15,35.69,35.69,0,0,1,3.85,16.95,36,36,0,0,1-3.85,17,26.58,26.58,0,0,1-11,11.21,37.07,37.07,0,0,1-33.14,0Zm28.16-13.36q4-5,4-14.86t-4-14.81q-4-5.1-11.59-5.1t-11.65,5.1q-4.1,5.1-4.1,14.81t4,14.86q4,5,11.6,5T876.37,336.74Z" transform="translate(0 0)" style="fill:#ed1c24"/><path d="M963.57,292.14a7.11,7.11,0,0,1,2.14,5.42v48.89a6.83,6.83,0,0,1-2.21,5.29,8.18,8.18,0,0,1-5.73,2,7.6,7.6,0,0,1-5.42-1.89,6.75,6.75,0,0,1-2-5.16v-3.15a20.06,20.06,0,0,1-7.81,7.75A22.61,22.61,0,0,1,931.44,354q-22.68,0-22.69-25.46v-31a7.08,7.08,0,0,1,2.15-5.42,7.93,7.93,0,0,1,5.67-2,8.13,8.13,0,0,1,5.79,2,7.07,7.07,0,0,1,2.14,5.42v31.12q0,6.56,2.65,9.7t8.32,3.15A13.57,13.57,0,0,0,946,337.18c2.64-2.89,4-6.74,4-11.52v-28.1a7.07,7.07,0,0,1,2.14-5.42,8,8,0,0,1,5.67-2A8.14,8.14,0,0,1,963.57,292.14Z" transform="translate(0 0)" style="fill:#ed1c24"/><path d="M1034.38,296.17q5.41,6.3,5.41,19v31a7.38,7.38,0,0,1-2.07,5.55,7.92,7.92,0,0,1-5.74,2,8.09,8.09,0,0,1-5.79-2,7.24,7.24,0,0,1-2.15-5.55V316.08q0-7.18-2.7-10.46t-8.51-3.27q-6.81,0-10.9,4.28t-4.09,11.47v28.09a7.24,7.24,0,0,1-2.15,5.55,8.11,8.11,0,0,1-5.79,2,7.88,7.88,0,0,1-5.73-2,7.34,7.34,0,0,1-2.08-5.55V297.43a6.92,6.92,0,0,1,2.14-5.29,8.13,8.13,0,0,1,5.79-2,7.53,7.53,0,0,1,5.36,2,6.66,6.66,0,0,1,2.08,5.1v3.4a21.34,21.34,0,0,1,8.44-7.94,25.51,25.51,0,0,1,12-2.77Q1029,289.87,1034.38,296.17Z" transform="translate(0 0)" style="fill:#ed1c24"/></g></g></svg>