<svg xmlns:dc="http://purl.org/dc/elements/1.1/" xmlns:cc="http://creativecommons.org/ns#" xmlns:rdf="http://www.w3.org/1999/02/22-rdf-syntax-ns#" xmlns:svg="http://www.w3.org/2000/svg" xmlns="http://www.w3.org/2000/svg" xmlns:sodipodi="http://sodipodi.sourceforge.net/DTD/sodipodi-0.dtd" xmlns:inkscape="http://www.inkscape.org/namespaces/inkscape" id="Layer_1" x="0px" y="0px" width="1000" height="802.20697" viewBox="0 0 1000 802.20699" xml:space="preserve" inkscape:version="0.91 r13725" sodipodi:docname="Carrefour 2009.svg" style="" class="adaptWidth">                    <path style="fill: #ffffff;fill-opacity:1;" inkscape:connector-curvature="0" d="M 337.21045,17.89344 118.76511,229.22212 c -10.91012,9.26416 -17.87785,20.14294 -17.87785,35.70869 0,15.49513 6.97556,26.41312 17.87785,35.74783 l 218.44534,211.25814 c 1.40293,1.4343 2.75886,2.00645 3.911,2.00645 2.06916,0 3.49562,-1.88103 3.43296,-4.09128 -0.0627,-1.30104 -0.62703,-2.79809 -1.92028,-4.0913 -51.27441,-63.70505 -88.58198,-136.76837 -88.58198,-240.06178 0,-103.3561 37.30757,-177.85372 88.58198,-241.60576 1.29325,-1.27758 1.85756,-2.75103 1.92028,-4.08348 0.0704,-2.25726 -1.3638,-4.08347 -3.43296,-4.08347 -1.15214,-0.0223 -2.50807,0.54082 -3.911,1.96728" id="path15-9"></path><path style="fill: #ffffff;fill-opacity:1;" inkscape:connector-curvature="0" d="M 505.1494,-7.0214844e-5 C 419.61628,-7.0214844e-5 386.19622,121.21035 386.19622,265.68321 c 0,144.51987 33.42006,264.11573 118.95318,264.11573 51.32927,0 95.07947,-30.05765 95.22058,-54.76218 0.0223,-5.40805 -2.06133,-10.5888 -6.59937,-15.11114 -24.32835,-23.50533 -33.84334,-46.995 -33.91386,-67.7258 -0.15697,-39.5727 34.17249,-69.0504 65.8212,-69.0504 43.50724,0 69.16799,34.19601 69.16799,78.4792 0,41.96319 -17.87788,76.9116 -37.3311,104.90015 -0.76812,1.14427 -1.11297,2.42185 -1.11297,3.54265 0.0159,2.19455 1.30891,3.99722 3.24483,3.99722 1.17563,0 2.55507,-0.62704 4.05991,-2.13972 L 882.2068,300.6708 c 10.91009,-9.32687 17.87782,-20.25266 17.87782,-35.74785 0,-15.55789 -6.97551,-26.4445 -17.87782,-35.70866 L 663.70661,17.88561 c -1.49698,-1.49699 -2.87642,-2.13185 -4.05991,-2.13185 -1.95158,0 -3.22914,1.81833 -3.24483,4.02075 0,1.12863 0.34475,2.39052 1.11297,3.55048 19.44542,27.94936 37.3311,62.93695 37.3311,104.86878 0,44.25183 -25.66075,78.47918 -69.16799,78.47918 -31.64871,0 -65.97795,-29.45417 -65.8212,-69.03471 0.0703,-20.73076 9.58551,-44.24393 33.91386,-67.72577 4.53804,-4.54593 6.62284,-9.67962 6.59937,-15.09547 C 600.22893,30.07328 556.47867,-7.0214844e-5 505.1494,-7.0214844e-5" id="path17-4"></path></svg>